<?xml version="1.0" standalone="no"?>
<!DOCTYPE svg PUBLIC "-//W3C//DTD SVG 20010904//EN"
 "http://www.w3.org/TR/2001/REC-SVG-20010904/DTD/svg10.dtd">
<svg version="1.0" xmlns="http://www.w3.org/2000/svg"
 width="11.000000pt" height="183.000000pt" viewBox="0 0 11.000000 183.000000"
 preserveAspectRatio="xMidYMid meet">

<g transform="translate(0.000000,183.000000) scale(0.100000,-0.100000)"
fill="#000000" stroke="none">
<path d="M44 1805 c-3 -8 0 -31 7 -52 9 -27 10 -87 5 -227 -13 -348 -15 -382
-36 -521 -5 -39 -7 -99 -2 -134 4 -36 3 -165 -1 -289 -8 -216 -8 -226 13 -281
19 -53 20 -64 10 -122 -31 -164 -31 -179 1 -179 10 0 19 6 20 13 1 17 6 42 19
97 20 85 17 159 -9 223 -25 60 -25 114 -2 217 11 50 13 205 3 290 -6 50 -1
169 13 275 13 108 19 209 22 413 4 214 4 224 -17 257 -23 38 -37 44 -46 20z"/>
</g>
</svg>
