<?xml version="1.0" standalone="no"?>
<!DOCTYPE svg PUBLIC "-//W3C//DTD SVG 20010904//EN"
 "http://www.w3.org/TR/2001/REC-SVG-20010904/DTD/svg10.dtd">
<svg version="1.0" xmlns="http://www.w3.org/2000/svg"
 width="225.000000pt" height="225.000000pt" viewBox="0 0 225.000000 225.000000"
 preserveAspectRatio="xMidYMid meet">

<g transform="translate(0.000000,225.000000) scale(0.100000,-0.100000)"
fill="#000000" stroke="none">
<path d="M1040 1964 c-14 -2 -52 -9 -85 -15 -314 -57 -585 -327 -656 -654 -17
-77 -17 -263 0 -340 71 -327 329 -585 656 -656 77 -17 263 -17 340 0 277 60
515 261 613 519 43 111 56 183 56 307 0 61 -6 137 -13 170 -69 316 -309 566
-619 646 -74 19 -242 32 -292 23z m295 -168 c112 -36 197 -88 285 -176 87 -87
140 -172 177 -285 23 -70 26 -96 26 -210 0 -114 -3 -140 -26 -210 -37 -113
-90 -198 -177 -285 -87 -87 -172 -140 -285 -177 -70 -23 -96 -26 -210 -26
-114 0 -140 3 -210 26 -113 37 -198 90 -285 177 -87 87 -140 172 -177 285 -23
70 -26 96 -26 210 0 114 3 140 26 210 37 113 90 198 177 285 108 108 233 174
374 200 87 16 241 4 331 -24z"/>
</g>
</svg>
